# xmcd
#
# Track frame offsets: 
#        150
#        26715
#        48347
#        81240
#        93677
#        135582
#        152407
#        178897
#        202009
#        230140
#
# Disc length: 3316 seconds
#
# Revision: 1
# Processed by: cddbd v1.5.2PL0 Copyright (c) Steve Scherf et al.
# Submitted via: ExactAudioCopyFreeDBPlugin 1.0
#
DISCID=880cf20a
DTITLE=Corky Siegel - Complementary Colors
DYEAR=1998
DGENRE=Chamber Music
TTITLE0=El Nino
TTITLE1=Complementary Colors
TTITLE2=Burnt Sienna
TTITLE3=Raw Umber
TTITLE4=Slow Indigo
TTITLE5=It's Too Early In The Morning, Irene
TTITLE6=Pizzicato Blues
TTITLE7=Uptown Shoes
TTITLE8=Downtown Blues
TTITLE9=Goodbye California
EXTD=
EXTT0=
EXTT1=
EXTT2=
EXTT3=
EXTT4=
EXTT5=
EXTT6=
EXTT7=
EXTT8=
EXTT9=
PLAYORDER=
